sharedump.org

Malone 1987 DVDRip XviD TF1

Ex-CIA hit-man running from his past (Malone) finds just how difficult it is to retire when he runs... See full summary »

Director:

Harley Cokeliss

Writers:

Christopher Frank (screenplay), William P. Wingate (novel)

Stars:

Burt Reynolds, Cliff Robertson and Kenneth McMillan



ID : 0
Format : MPEG-4 Visual
Format profile : Advanced Simple@L5
Format settings, BVOP : 2
Format settings, QPel : No
Format settings, GMC : No warppoints
Format settings, Matrix : Default (MPEG)
Codec ID : XVID
Codec ID/Hint : XviD
Duration : 1h 31mn
Bit rate : 89.3 Kbps
Width : 720 pixels
Height : 540 pixels
Display aspect ratio : 4:3
Frame rate : 29.970 fps
Color space : YUV
Chroma subsampling : 4:2:0
Bit depth : 8 bits
Scan type : Progressive
Compression mode : Lossy
Bits/(Pixel*Frame) : 0.008
Stream size : 58.5 MiB (5%)
Writing library : XviD 1.2.1 (UTC 2008-12-04)



ID : 1
Format : MPEG Audio
Codec ID : 55
Codec ID/Hint : MP3
Duration : 1h 31mn
Bit rate : 128 Kbps
Channel(s) : 2 channels
Sampling rate : 48.0 KHz
Compression mode : Lossy
Stream size : 83.9 MiB (7%)
Alignment : Aligned on interleaves

[youtube]l8bpN0y1TAw[/youtube]